HIERARCHY
ROOT Hips
{
	OFFSET 0.000000 100.481300 0.000000
	CHANNELS 6 Xposition Yposition Zposition Xrotation Yrotation Zrotation 
	JOINT Spine
	{
		OFFSET -0.279200 12.230698 -2.892100
		CHANNELS 3 Xrotation Yrotation Zrotation
		JOINT Spine1
		{
			OFFSET -0.232667 10.192268 -1.242267
			CHANNELS 3 Xrotation Yrotation Zrotation
			JOINT Spine1_split
			{
				OFFSET -0.232667 10.192268 -1.242267
				CHANNELS 3 Xrotation Yrotation Zrotation
				JOINT Spine2
				{
					OFFSET -0.232667 10.192268 -1.242267
					CHANNELS 3 Xrotation Yrotation Zrotation
					JOINT Neck
					{
						OFFSET -0.418800 17.814194 8.416900
						CHANNELS 3 Xrotation Yrotation Zrotation
						JOINT Head
						{
							OFFSET 0.000000 7.031097 3.806800
							CHANNELS 3 Xrotation Yrotation Zrotation
							JOINT HeadTop_End
							{
								OFFSET 0.000000 24.646606 12.978600
								CHANNELS 3 Xrotation Yrotation Zrotation
								End Site
								{
									OFFSET 0.000000 0.000000 0.000000
								}
							}
						}
					}
					JOINT LeftShoulder
					{
						OFFSET 8.476499 7.247704 -3.868750
						CHANNELS 3 Xrotation Yrotation Zrotation
						JOINT LeftShoulder_split
						{
							OFFSET 8.476499 7.247704 -3.868750
							CHANNELS 3 Xrotation Yrotation Zrotation
							JOINT LeftArm
							{
								OFFSET 9.308998 -2.777710 0.208600
								CHANNELS 3 Xrotation Yrotation Zrotation
								JOINT LeftForeArm
								{
									OFFSET 29.972298 0.000000 0.000000
									CHANNELS 3 Xrotation Yrotation Zrotation
									JOINT LeftHand
									{
										OFFSET 26.026505 0.000000 0.000000
										CHANNELS 3 Xrotation Yrotation Zrotation
										JOINT LeftHandThumb1
										{
											OFFSET 12.240501 -7.147949 9.207150
											CHANNELS 3 Xrotation Yrotation Zrotation
											JOINT LeftHandThumb2
											{
												OFFSET 4.138618 -2.389435 2.389433
												CHANNELS 3 Xrotation Yrotation Zrotation
												JOINT LeftHandThumb3
												{
													OFFSET 2.726913 -1.574387 1.574386
													CHANNELS 3 Xrotation Yrotation Zrotation
													JOINT LeftHandThumb4
													{
														OFFSET 3.941010 -2.275345 2.275342
														CHANNELS 3 Xrotation Yrotation Zrotation
														End Site
														{
															OFFSET 0.000000 0.000000 0.000000
														}
													}
												}
											}
										}
										JOINT LeftHandIndex1
										{
											OFFSET 24.424698 -1.985611 5.953459
											CHANNELS 3 Xrotation Yrotation Zrotation
											JOINT LeftHandIndex2
											{
												OFFSET 6.426697 0.000000 0.000000
												CHANNELS 3 Xrotation Yrotation Zrotation
												JOINT LeftHandIndex3
												{
													OFFSET 5.337898 0.000000 0.000000
													CHANNELS 3 Xrotation Yrotation Zrotation
													JOINT LeftHandIndex4
													{
														OFFSET 4.409401 0.000000 0.000000
														CHANNELS 3 Xrotation Yrotation Zrotation
														End Site
														{
															OFFSET 0.000000 0.000000 0.000000
														}
													}
												}
											}
										}
										JOINT LeftHandMiddle1
										{
											OFFSET 23.810104 0.000000 0.000000
											CHANNELS 3 Xrotation Yrotation Zrotation
											JOINT LeftHandMiddle2
											{
												OFFSET 7.176498 0.000000 0.000000
												CHANNELS 3 Xrotation Yrotation Zrotation
												JOINT LeftHandMiddle3
												{
													OFFSET 6.774902 0.000000 0.000000
													CHANNELS 3 Xrotation Yrotation Zrotation
													JOINT LeftHandMiddle4
													{
														OFFSET 5.403328 0.000000 0.000000
														CHANNELS 3 Xrotation Yrotation Zrotation
														End Site
														{
															OFFSET 0.000000 0.000000 0.000000
														}
													}
												}
											}
										}
										JOINT LeftHandRing1
										{
											OFFSET 22.908401 -0.839279 -6.020567
											CHANNELS 3 Xrotation Yrotation Zrotation
											JOINT LeftHandRing2
											{
												OFFSET 6.337502 0.000000 0.000000
												CHANNELS 3 Xrotation Yrotation Zrotation
												JOINT LeftHandRing3
												{
													OFFSET 5.779297 0.000000 0.000000
													CHANNELS 3 Xrotation Yrotation Zrotation
													JOINT LeftHandRing4
													{
														OFFSET 4.965698 0.000000 0.000000
														CHANNELS 3 Xrotation Yrotation Zrotation
														End Site
														{
															OFFSET 0.000000 0.000000 0.000000
														}
													}
												}
											}
										}
										JOINT LeftHandPinky1
										{
											OFFSET 20.037003 -1.530319 -10.950146
											CHANNELS 3 Xrotation Yrotation Zrotation
											JOINT LeftHandPinky2
											{
												OFFSET 5.254700 0.000000 0.000000
												CHANNELS 3 Xrotation Yrotation Zrotation
												JOINT LeftHandPinky3
												{
													OFFSET 4.810204 0.000000 0.000000
													CHANNELS 3 Xrotation Yrotation Zrotation
													JOINT LeftHandPinky4
													{
														OFFSET 3.647202 0.000000 0.000000
														CHANNELS 3 Xrotation Yrotation Zrotation
														End Site
														{
															OFFSET 0.000000 0.000000 0.000000
														}
													}
												}
											}
										}
									}
								}
							}
						}
					}
					JOINT RightShoulder
					{
						OFFSET -7.570500 7.247704 -3.868750
						CHANNELS 3 Xrotation Yrotation Zrotation
						JOINT RightShoulder_split
						{
							OFFSET -7.570500 7.247704 -3.868750
							CHANNELS 3 Xrotation Yrotation Zrotation
							JOINT RightArm
							{
								OFFSET -9.308998 -2.777710 0.208500
								CHANNELS 3 Xrotation Yrotation Zrotation
								JOINT RightForeArm
								{
									OFFSET -29.972300 0.000000 0.000000
									CHANNELS 3 Xrotation Yrotation Zrotation
									JOINT RightHand
									{
										OFFSET -26.026505 0.000000 0.000000
										CHANNELS 3 Xrotation Yrotation Zrotation
										JOINT RightHandThumb1
										{
											OFFSET -12.240601 -7.148026 9.207092
											CHANNELS 3 Xrotation Yrotation Zrotation
											JOINT RightHandThumb2
											{
												OFFSET -4.138618 -2.389435 2.389433
												CHANNELS 3 Xrotation Yrotation Zrotation
												JOINT RightHandThumb3
												{
													OFFSET -2.726974 -1.574417 1.574421
													CHANNELS 3 Xrotation Yrotation Zrotation
													JOINT RightHandThumb4
													{
														OFFSET -3.941010 -2.275345 2.275343
														CHANNELS 3 Xrotation Yrotation Zrotation
														End Site
														{
															OFFSET 0.000000 0.000000 0.000000
														}
													}
												}
											}
										}
										JOINT RightHandIndex1
										{
											OFFSET -24.424698 -1.985657 5.953444
											CHANNELS 3 Xrotation Yrotation Zrotation
											JOINT RightHandIndex2
											{
												OFFSET -6.426697 0.000000 0.000000
												CHANNELS 3 Xrotation Yrotation Zrotation
												JOINT RightHandIndex3
												{
													OFFSET -5.337898 0.000000 0.000000
													CHANNELS 3 Xrotation Yrotation Zrotation
													JOINT RightHandIndex4
													{
														OFFSET -4.409401 0.000000 0.000000
														CHANNELS 3 Xrotation Yrotation Zrotation
														End Site
														{
															OFFSET 0.000000 0.000000 0.000000
														}
													}
												}
											}
										}
										JOINT RightHandMiddle1
										{
											OFFSET -23.810097 0.000000 0.000000
											CHANNELS 3 Xrotation Yrotation Zrotation
											JOINT RightHandMiddle2
											{
												OFFSET -7.176498 0.000000 0.000000
												CHANNELS 3 Xrotation Yrotation Zrotation
												JOINT RightHandMiddle3
												{
													OFFSET -6.774902 0.000000 0.000000
													CHANNELS 3 Xrotation Yrotation Zrotation
													JOINT RightHandMiddle4
													{
														OFFSET -5.403328 0.000000 0.000000
														CHANNELS 3 Xrotation Yrotation Zrotation
														End Site
														{
															OFFSET 0.000000 0.000000 0.000000
														}
													}
												}
											}
										}
										JOINT RightHandRing1
										{
											OFFSET -22.908302 -0.839325 -6.020576
											CHANNELS 3 Xrotation Yrotation Zrotation
											JOINT RightHandRing2
											{
												OFFSET -6.337502 0.000000 0.000000
												CHANNELS 3 Xrotation Yrotation Zrotation
												JOINT RightHandRing3
												{
													OFFSET -5.779297 0.000000 0.000000
													CHANNELS 3 Xrotation Yrotation Zrotation
													JOINT RightHandRing4
													{
														OFFSET -4.965698 0.000000 0.000000
														CHANNELS 3 Xrotation Yrotation Zrotation
														End Site
														{
															OFFSET 0.000000 0.000000 0.000000
														}
													}
												}
											}
										}
										JOINT RightHandPinky1
										{
											OFFSET -20.037003 -1.530334 -10.950259
											CHANNELS 3 Xrotation Yrotation Zrotation
											JOINT RightHandPinky2
											{
												OFFSET -5.254700 0.000000 0.000000
												CHANNELS 3 Xrotation Yrotation Zrotation
												JOINT RightHandPinky3
												{
													OFFSET -4.810204 0.000000 0.000000
													CHANNELS 3 Xrotation Yrotation Zrotation
													JOINT RightHandPinky4
													{
														OFFSET -3.647202 0.000000 0.000000
														CHANNELS 3 Xrotation Yrotation Zrotation
														End Site
														{
															OFFSET 0.000000 0.000000 0.000000
														}
													}
												}
											}
										}
									}
								}
							}
						}
					}
				}
			}
		}
	}
	JOINT LeftUpLeg
	{
		OFFSET 15.427100 -6.655098 0.678600
		CHANNELS 3 Xrotation Yrotation Zrotation
		JOINT LeftLeg
		{
			OFFSET 4.081073 -39.591068 13.024000
			CHANNELS 3 Xrotation Yrotation Zrotation
			JOINT LeftFoot
			{
				OFFSET -4.081074 -37.707932 -15.979700
				CHANNELS 3 Xrotation Yrotation Zrotation
				JOINT LeftToeBase
				{
					OFFSET 5.346399 -15.068900 20.645000
					CHANNELS 3 Xrotation Yrotation Zrotation
					JOINT LeftToe_End
					{
						OFFSET 2.754700 0.931300 11.300900
						CHANNELS 3 Xrotation Yrotation Zrotation
						End Site
						{
							OFFSET 0.000000 0.000000 0.000000
						}
					}
				}
			}
		}
	}
	JOINT RightUpLeg
	{
		OFFSET -15.569500 -6.655098 0.678600
		CHANNELS 3 Xrotation Yrotation Zrotation
		JOINT RightLeg
		{
			OFFSET -4.081825 -39.591045 13.023800
			CHANNELS 3 Xrotation Yrotation Zrotation
			JOINT RightFoot
			{
				OFFSET 4.081824 -37.707954 -15.979600
				CHANNELS 3 Xrotation Yrotation Zrotation
				JOINT RightToeBase
				{
					OFFSET -5.346400 -15.068900 20.645000
					CHANNELS 3 Xrotation Yrotation Zrotation
					JOINT RightToe_End
					{
						OFFSET -2.754700 0.931300 11.300900
						CHANNELS 3 Xrotation Yrotation Zrotation
						End Site
						{
							OFFSET 0.000000 0.000000 0.000000
						}
					}
				}
			}
		}
	}
}
MOTION
Frames: 4
Frame Time: 0.016667
-0.063809 84.217316 6.423813 -12.958088 -1.283722 -5.194419 5.923507 -0.612322 2.822142 9.106089 -0.324703 -0.848842 0.000000 0.000000 0.000000 9.111603 -0.022997 -0.851798 15.434441 0.560289 0.855190 -3.243829 0.523976 4.960277 0.000001 0.000000 -0.000000 0.689292 3.725265 -11.385281 0.000000 0.000000 0.000000 59.736910 -63.314686 -9.099210 0.000005 -20.467437 0.000017 -19.310939 9.265479 -7.550680 21.734268 5.841448 -2.497397 -16.162767 18.936373 19.036138 -9.576529 8.451317 10.577061 0.000001 -0.000001 -0.000002 0.152619 1.444567 -12.061577 0.086636 1.091027 -9.079568 0.021683 0.547213 -4.539372 -0.000001 0.000001 -0.000001 0.152217 1.442681 -12.045586 0.086938 1.092921 -9.095567 0.021687 0.547213 -4.539367 -0.000002 0.000001 0.000000 0.152619 1.444567 -12.061577 0.086636 1.091027 -9.079569 0.021682 0.547196 -4.539383 0.000000 0.000001 0.000002 0.985185 5.412799 -11.600965 0.078379 -2.964060 -9.583908 0.021691 0.547221 -4.539371 0.000002 0.000000 0.000002 1.381296 0.020057 11.778363 0.000000 0.000000 0.000000 9.839209 40.445337 56.843245 -0.000005 26.830950 0.000013 35.425708 -10.440543 11.800210 -0.389730 -6.638716 -15.665592 8.907276 -22.771344 0.157754 0.754312 -6.942796 -2.431195 0.000001 0.000002 -0.000003 0.174545 -1.551256 12.839274 0.140306 -1.392631 11.506930 0.035157 -0.699840 5.752616 0.000001 0.000000 -0.000001 0.174545 -1.551256 12.839273 0.140306 -1.392632 11.506932 0.035153 -0.699842 5.752606 -0.000002 0.000000 -0.000001 0.174546 -1.551254 12.839278 0.140308 -1.392635 11.506924 0.035155 -0.699839 5.752615 0.000001 0.000000 -0.000000 0.174545 -1.551256 12.839273 0.140309 -1.392634 11.506931 0.035156 -0.699838 5.752615 -0.000000 -0.000001 0.000000 -32.085063 20.849151 9.723602 41.620601 -7.363519 10.803402 0.181956 -9.274891 0.099397 -1.018577 0.000006 0.000000 0.000000 0.000000 0.000000 -22.046850 -37.127269 0.030898 38.423683 7.985376 -10.858673 -3.095744 8.783412 -6.225259 -0.000021 0.000002 -0.000000 0.000000 -0.000002 -0.000000 
-0.068206 84.224670 6.428520 -12.942708 -1.242670 -5.193661 5.919583 -0.612414 2.825750 9.101771 -0.326364 -0.858134 0.000000 0.000000 0.000000 9.107326 -0.025738 -0.860711 15.423284 0.554961 0.870814 -3.284134 0.522454 4.912770 -0.000000 0.000000 -0.000000 0.689443 3.728123 -11.389585 0.000000 0.000000 0.000000 59.635515 -63.287099 -9.181444 -0.000005 -20.479446 -0.000010 -19.271232 9.284315 -7.567684 21.734272 5.841448 -2.497397 -16.162767 18.936373 19.036137 -9.576525 8.451318 10.577061 -0.000001 -0.000002 -0.000000 0.152620 1.444567 -12.061577 0.086636 1.091027 -9.079568 0.021681 0.547212 -4.539374 -0.000000 0.000001 0.000000 0.152220 1.442682 -12.045586 0.086935 1.092921 -9.095564 0.021684 0.547213 -4.539367 -0.000001 -0.000000 0.000006 0.152620 1.444567 -12.061577 0.086633 1.091026 -9.079569 0.021683 0.547197 -4.539382 0.000001 -0.000001 0.000001 0.985187 5.412799 -11.600967 0.078384 -2.964060 -9.583909 0.021692 0.547221 -4.539373 0.000001 0.000002 0.000000 1.380293 0.014380 11.778445 0.000000 0.000000 0.000000 9.844061 40.462532 56.845342 0.000016 26.845937 -0.000004 35.401171 -10.448972 11.800091 -0.389730 -6.638717 -15.665594 8.907274 -22.771342 0.157753 0.754312 -6.942801 -2.431196 0.000001 -0.000002 -0.000002 0.174548 -1.551256 12.839273 0.140308 -1.392632 11.506931 0.035158 -0.699839 5.752612 0.000001 0.000001 -0.000000 0.174548 -1.551255 12.839273 0.140307 -1.392633 11.506930 0.035155 -0.699842 5.752603 -0.000002 -0.000000 -0.000001 0.174549 -1.551253 12.839279 0.140308 -1.392635 11.506923 0.035157 -0.699840 5.752614 0.000003 -0.000000 -0.000002 0.174548 -1.551256 12.839273 0.140309 -1.392634 11.506931 0.035159 -0.699838 5.752615 -0.000000 0.000000 0.000001 -32.091091 20.831466 9.707148 41.606412 -7.364899 10.803158 0.193998 -9.282902 0.107995 -1.025287 -0.000004 -0.000003 0.000000 0.000000 -0.000000 -22.043817 -37.158678 0.023134 38.411314 7.987735 -10.857512 -3.105473 8.773031 -6.220524 -0.000021 0.000002 -0.000000 -0.000000 -0.000000 -0.000000 
-0.072427 84.231056 6.433344 -12.928953 -1.205627 -5.193727 5.916366 -0.612811 2.828945 9.098277 -0.328489 -0.866142 0.000000 0.000000 0.000000 9.103878 -0.028798 -0.868352 15.411980 0.550057 0.886042 -3.321172 0.521829 4.868123 0.000002 0.000000 -0.000000 0.689443 3.729465 -11.390496 0.000000 0.000000 0.000000 59.511377 -63.261943 -9.286496 0.000006 -20.488105 0.000033 -19.229269 9.299538 -7.586328 21.734268 5.841449 -2.497397 -16.162765 18.936377 19.036142 -9.576525 8.451317 10.577061 -0.000002 0.000001 0.000001 0.152620 1.444567 -12.061580 0.086636 1.091027 -9.079569 0.021688 0.547213 -4.539374 -0.000001 0.000001 -0.000001 0.152216 1.442681 -12.045588 0.086936 1.092920 -9.095566 0.021686 0.547213 -4.539371 -0.000002 0.000000 0.000001 0.152620 1.444567 -12.061579 0.086634 1.091027 -9.079568 0.021684 0.547197 -4.539384 0.000001 0.000001 0.000002 0.985187 5.412799 -11.600966 0.078380 -2.964060 -9.583911 0.021694 0.547221 -4.539372 0.000002 -0.000000 -0.000001 1.379341 0.009006 11.778238 0.000000 0.000000 0.000000 9.848082 40.481172 56.846671 0.000001 26.857853 -0.000021 35.377822 -10.457186 11.798768 -0.389730 -6.638718 -15.665597 8.907276 -22.771340 0.157752 0.754311 -6.942797 -2.431194 0.000000 -0.000001 -0.000004 0.174546 -1.551256 12.839273 0.140310 -1.392632 11.506931 0.035158 -0.699840 5.752617 0.000001 -0.000000 -0.000001 0.174546 -1.551256 12.839273 0.140308 -1.392633 11.506932 0.035156 -0.699843 5.752606 0.000001 -0.000000 0.000001 0.174548 -1.551254 12.839279 0.140307 -1.392635 11.506926 0.035158 -0.699839 5.752620 -0.000001 0.000000 -0.000000 0.174546 -1.551256 12.839273 0.140309 -1.392634 11.506934 0.035159 -0.699838 5.752617 0.000000 0.000000 0.000000 -32.096637 20.815083 9.693454 41.594500 -7.365858 10.802877 0.203827 -9.290599 0.116283 -1.031772 0.000001 0.000002 -0.000000 0.000000 -0.000000 -22.041060 -37.194478 0.014074 38.400437 7.989980 -10.856360 -3.114927 8.769093 -6.218361 -0.000021 0.000002 -0.000000 -0.000000 -0.000000 0.000000 
-0.076854 84.237282 6.438402 -12.915898 -1.170048 -5.194160 5.913462 -0.613475 2.832196 9.095247 -0.331065 -0.873292 0.000000 0.000000 0.000000 9.100892 -0.032250 -0.875140 15.400786 0.545105 0.901278 -3.355567 0.520872 4.823727 0.000001 0.000000 -0.000000 0.689394 3.730280 -11.390353 0.000000 0.000000 0.000000 59.372164 -63.239151 -9.406509 0.000004 -20.492454 0.000019 -19.183923 9.314091 -7.606364 21.734266 5.841448 -2.497397 -16.162765 18.936375 19.036138 -9.576528 8.451318 10.577061 -0.000002 0.000001 -0.000000 0.152619 1.444567 -12.061575 0.086637 1.091028 -9.079569 0.021685 0.547214 -4.539376 0.000001 -0.000000 -0.000002 0.152214 1.442682 -12.045586 0.086935 1.092921 -9.095566 0.021686 0.547213 -4.539370 -0.000000 -0.000000 -0.000000 0.152619 1.444567 -12.061575 0.086634 1.091027 -9.079569 0.021685 0.547198 -4.539380 0.000001 0.000000 -0.000001 0.985184 5.412799 -11.600966 0.078381 -2.964060 -9.583911 0.021693 0.547222 -4.539372 0.000002 0.000000 0.000001 1.378494 0.004378 11.777019 0.000000 0.000000 0.000000 9.850213 40.499552 56.849007 0.000005 26.868047 -0.000015 35.355860 -10.464763 11.797757 -0.389731 -6.638719 -15.665597 8.907276 -22.771349 0.157754 0.754311 -6.942798 -2.431197 -0.000002 0.000000 -0.000001 0.174546 -1.551256 12.839272 0.140309 -1.392631 11.506931 0.035156 -0.699841 5.752612 0.000001 0.000000 -0.000000 0.174546 -1.551255 12.839272 0.140307 -1.392632 11.506930 0.035154 -0.699842 5.752606 0.000001 -0.000001 0.000003 0.174548 -1.551253 12.839277 0.140306 -1.392635 11.506925 0.035156 -0.699840 5.752614 0.000000 0.000001 -0.000001 0.174546 -1.551256 12.839272 0.140307 -1.392633 11.506930 0.035157 -0.699839 5.752612 0.000001 0.000000 -0.000001 -32.101957 20.799565 9.681266 41.583196 -7.366828 10.802506 0.212920 -9.298414 0.124749 -1.038247 0.000001 -0.000003 -0.000000 0.000000 -0.000000 -22.037124 -37.228957 0.006432 38.389908 7.992097 -10.855277 -3.124584 8.764579 -6.216413 -0.000021 0.000002 -0.000000 -0.000000 -0.000000 0.000000 
